<svg width="591" height="700" viewBox="0 0 591 700" fill="none" xmlns="http://www.w3.org/2000/svg">
<path d="M518 312V387C518 484.333 495.667 561 451 617C406.333 672.333 342.333 700 259 700C175 700 110.667 672.333 66 617C22 561 0 484.333 0 387V312C0 215.333 22 139.333 66 84.0001C110.667 28 175 0 259 0C342.333 0 406.333 28 451 84.0001C495.667 139.333 518 215.333 518 312ZM423 262C423 178.667 409 119.667 381 85C353.667 49.6667 313 32 259 32C205 32 164 49.6667 136 85C108.667 119.667 95 178.667 95 262V437C95 520.333 108.667 579.667 136 615C164 650.333 205 668 259 668C313 668 353.667 650.333 381 615C409 579.667 423 520.333 423 437V262Z" fill="black"/>
<path d="M544.283 698C530.95 698 520.016 693.733 511.483 685.2C503.483 676.667 499.483 665.733 499.483 652.4C499.483 639.067 503.483 628.4 511.483 620.4C520.016 611.867 530.95 607.6 544.283 607.6C558.15 607.6 569.349 611.867 577.883 620.4C586.416 628.4 590.683 639.067 590.683 652.4C590.683 665.733 586.416 676.667 577.883 685.2C569.349 693.733 558.15 698 544.283 698Z" fill="black"/>
</svg>
